<?xml version="1.0" encoding="utf-8"?>
<!-- Generator: Adobe Illustrator 18.0.0, SVG Export Plug-In . SVG Version: 6.00 Build 0)  -->
<!DOCTYPE svg PUBLIC "-//W3C//DTD SVG 1.1//EN" "http://www.w3.org/Graphics/SVG/1.1/DTD/svg11.dtd">
<svg version="1.1" id="Capa_1" xmlns="http://www.w3.org/2000/svg" xmlns:xlink="http://www.w3.org/1999/xlink" x="0px" y="0px"
	 viewBox="2.9 86.8 317.3 102.8" enable-background="new 2.9 86.8 317.3 102.8" xml:space="preserve">
<g>
	<g>
		<circle fill="#86BAE3" cx="54.3" cy="138.2" r="8.8"/>
		<path fill="#86BAE3" d="M54.3,86.8c-28.3,0-51.4,23.1-51.4,51.4s23.1,51.4,51.4,51.4s51.4-23.1,51.4-51.4S82.7,86.8,54.3,86.8z
			 M54.3,182.8c-24.7,0-44.7-20-44.7-44.7s20-44.7,44.7-44.7s44.7,20,44.7,44.7S79,182.8,54.3,182.8z"/>
		<path fill="#1C3345" d="M54.3,123.4c8.2,0,14.8,6.6,14.8,14.8S62.6,153,54.3,153s-14.8-6.6-14.8-14.8c0-2.8,0.7-5.4,2.2-7.6
			L21,118.7c-3.4,5.7-5.3,12.3-5.3,19.5c0,21.3,17.3,38.6,38.6,38.6S93,159.5,93,138.2S75.6,99.6,54.3,99.6V123.4z"/>
	</g>
	<g>
		<g>
			<path fill="#173245" d="M131.6,104h1.6l7.2,16h-1.9l-1.9-4.1h-8.7l-1.6,4.1h-1.8L131.6,104z M136,114.1l-3.5-8.1l-3.7,8.1H136z"
				/>
			<path fill="#173245" d="M142.5,104.1h5.4c1.2,0,2.4,0.1,3.4,0.6c1,0.4,1.9,0.9,2.6,1.6c0.7,0.7,1.3,1.5,1.8,2.5
				c0.4,1,0.6,2.1,0.6,3.1l0,0c0,1.2-0.1,2.2-0.6,3.1c-0.4,1-1,1.8-1.8,2.5c-0.7,0.7-1.6,1.3-2.6,1.6c-1,0.4-2.2,0.6-3.4,0.6h-5.4
				V104.1z M148.1,118.4c1,0,1.9-0.1,2.6-0.4c0.9-0.3,1.5-0.7,2.1-1.3c0.6-0.6,1-1.2,1.3-1.9c0.3-0.7,0.4-1.6,0.4-2.5l0,0
				c0-0.9-0.1-1.8-0.4-2.5c-0.3-0.7-0.7-1.5-1.3-2.1c-0.6-0.6-1.3-1-2.1-1.3c-0.9-0.3-1.8-0.4-2.6-0.4h-3.7v12.5H148.1z"/>
			<path fill="#173245" d="M159.1,104.1h1.8l5.7,8.7l5.7-8.7h1.8V120h-1.8v-12.8l-5.7,8.5h-0.1l-5.7-8.5V120h-1.8v-15.9H159.1z"/>
			<path fill="#173245" d="M177.7,104.1h1.8V120h-1.8V104.1z"/>
			<path fill="#173245" d="M182.9,104.1h1.6l10,12.6v-12.6h1.8V120h-1.5l-10.3-12.9V120h-1.8v-15.9H182.9z"/>
			<path fill="#173245" d="M199.8,104.1h1.8V120h-1.8V104.1z"/>
			<path fill="#173245" d="M210.5,120.1c-1.3,0-2.4-0.1-3.5-0.6c-1-0.4-2.1-1-2.9-1.9l1.2-1.3c0.9,0.7,1.6,1.3,2.5,1.6
				c0.9,0.4,1.8,0.6,2.9,0.6c1,0,1.9-0.3,2.5-0.7c0.6-0.4,1-1.2,1-1.9l0,0c0-0.3,0-0.7-0.1-1c-0.1-0.3-0.3-0.6-0.6-0.7
				c-0.3-0.3-0.7-0.4-1.3-0.6c-0.6-0.1-1.2-0.4-2.1-0.6c-0.9-0.1-1.8-0.4-2.4-0.7c-0.7-0.3-1.2-0.6-1.6-0.9c-0.4-0.3-0.7-0.7-1-1.3
				c-0.1-0.4-0.3-1-0.3-1.8l0,0c0-0.6,0.1-1.2,0.4-1.8c0.3-0.6,0.6-1,1-1.3c0.4-0.4,1-0.7,1.6-0.9c0.6-0.1,1.3-0.3,2.1-0.3
				c1.2,0,2.2,0.1,3.1,0.4c0.9,0.3,1.8,0.9,2.5,1.5l-1,1.3c-0.7-0.6-1.5-1-2.2-1.3c-0.7-0.3-1.5-0.4-2.4-0.4c-1,0-1.9,0.3-2.5,0.7
				c-0.6,0.4-0.9,1-0.9,1.8l0,0c0,0.4,0,0.7,0.1,1c0.1,0.3,0.3,0.6,0.6,0.9c0.3,0.3,0.7,0.4,1.3,0.7c0.6,0.1,1.3,0.4,2.2,0.6
				c1.8,0.4,3.1,0.9,4,1.6c0.9,0.7,1.3,1.6,1.3,2.8l0,0c0,0.7-0.1,1.3-0.4,1.9c-0.3,0.6-0.6,1-1.2,1.5c-0.4,0.4-1,0.7-1.8,0.9
				C212,120.1,211.2,120.1,210.5,120.1z"/>
			<path fill="#173245" d="M222.5,105.7h-5.3v-1.6h12.3v1.6h-5.3V120h-1.8L222.5,105.7L222.5,105.7z"/>
			<path fill="#173245" d="M231.9,104.1h6.8c1,0,1.9,0.1,2.6,0.4c0.7,0.3,1.3,0.7,1.9,1.2c0.4,0.4,0.7,0.9,0.9,1.3
				c0.1,0.6,0.3,1.2,0.3,1.8l0,0c0,0.7-0.1,1.3-0.3,1.8c-0.1,0.6-0.4,1-0.9,1.3c-0.4,0.4-0.9,0.7-1.3,0.9c-0.6,0.3-1,0.4-1.8,0.6
				l4.8,6.5h-2.2l-4.6-6.2l0,0h-4.4v6.2h-1.8v-15.7H231.9z M238.5,112.2c0.6,0,1.2-0.1,1.6-0.3c0.4-0.1,0.9-0.3,1.3-0.6
				c0.3-0.3,0.6-0.6,0.9-1c0.1-0.4,0.3-0.9,0.3-1.3l0,0c0-1-0.3-1.8-1-2.4c-0.7-0.6-1.8-0.9-2.9-0.9h-4.8v6.5
				C233.8,112.2,238.5,112.2,238.5,112.2z"/>
			<path fill="#173245" d="M252.9,104h1.6l7.2,16h-1.9l-1.9-4.1h-8.7l-1.9,4.1h-1.8L252.9,104z M257.3,114.1l-3.5-8.1l-3.7,8.1
				H257.3z"/>
			<path fill="#173245" d="M271,120.3c-1.2,0-2.2-0.1-3.2-0.6s-1.8-1-2.5-1.8c-0.7-0.7-1.3-1.6-1.6-2.6c-0.4-1-0.6-2.1-0.6-3.2l0,0
				c0-1.2,0.1-2.2,0.6-3.2c0.4-1,0.9-1.9,1.6-2.6c0.7-0.7,1.6-1.3,2.5-1.8c1-0.4,2.1-0.6,3.2-0.6c0.7,0,1.3,0,1.9,0.1
				c0.6,0.1,1.2,0.3,1.6,0.4c0.4,0.1,1,0.4,1.3,0.7c0.4,0.3,0.9,0.6,1.2,1l-1.2,1.3c-0.7-0.6-1.5-1.2-2.2-1.6s-1.8-0.6-2.8-0.6
				c-0.9,0-1.6,0.1-2.5,0.4c-0.7,0.3-1.3,0.7-1.9,1.3c-0.6,0.6-1,1.3-1.3,2.1c-0.3,0.7-0.4,1.6-0.4,2.5l0,0c0,0.9,0.1,1.8,0.4,2.5
				c0.3,0.7,0.7,1.5,1.3,2.1c0.6,0.6,1.2,1,1.9,1.3s1.6,0.4,2.5,0.4c1,0,2.1-0.1,2.8-0.6s1.6-1,2.4-1.6l1.2,1.2
				c-0.4,0.4-0.9,0.7-1.3,1.2c-0.4,0.3-0.9,0.6-1.5,0.9c-0.4,0.3-1,0.4-1.6,0.6C272.3,120.1,271.7,120.3,271,120.3z"/>
			<path fill="#173245" d="M279.5,104.1h1.8V120h-1.8V104.1z"/>
			<path fill="#173245" d="M292,120.3c-1.2,0-2.4-0.1-3.2-0.6c-1-0.4-1.8-1-2.5-1.8c-0.7-0.7-1.3-1.6-1.6-2.6
				c-0.4-1-0.6-2.1-0.6-3.1l0,0c0-1,0.1-2.1,0.6-3.1c0.4-1,0.9-1.9,1.6-2.6c0.7-0.7,1.6-1.3,2.5-1.8c1-0.4,2.1-0.7,3.2-0.7
				c1.2,0,2.4,0.1,3.2,0.6c1,0.4,1.8,1,2.5,1.8c0.7,0.7,1.3,1.6,1.6,2.6c0.4,1,0.6,2.1,0.6,3.1l0,0c0,1-0.1,2.1-0.6,3.1
				s-0.9,1.9-1.6,2.6c-0.7,0.7-1.6,1.3-2.5,1.8C294.4,120,293.3,120.3,292,120.3z M292.2,118.5c0.9,0,1.8-0.1,2.5-0.4
				c0.7-0.3,1.5-0.7,1.9-1.3c0.6-0.6,1-1.3,1.3-2.1c0.3-0.7,0.4-1.6,0.4-2.5l0,0c0-0.9-0.1-1.8-0.4-2.5c-0.3-0.7-0.7-1.5-1.3-2.1
				c-0.6-0.6-1.2-1-1.9-1.5c-0.7-0.3-1.6-0.6-2.5-0.6s-1.8,0.1-2.5,0.4c-0.7,0.3-1.5,0.7-1.9,1.3c-0.6,0.6-1,1.3-1.3,2.1
				c-0.3,0.7-0.4,1.6-0.4,2.5l0,0c0,0.9,0.1,1.8,0.4,2.5c0.3,0.7,0.7,1.5,1.3,2.1c0.6,0.6,1.2,1,1.9,1.5
				C290.4,118.4,291.3,118.5,292.2,118.5z M293.6,99.4l1.8,0.9l-2.5,2.5h-1.5L293.6,99.4z"/>
			<path fill="#173245" d="M302.7,104.1h1.6l10,12.6v-12.6h1.8V120h-1.5l-10.3-12.9V120h-1.8v-15.9H302.7z"/>
		</g>
		<g>
			<path fill="#173245" d="M130.7,132h-6.5v-5.3h18.9v5.3h-6.5v16.3h-6V132z"/>
			<path fill="#173245" d="M145.9,126.7H156c3.2,0,5.6,0.9,7.1,2.4c1.3,1.2,1.9,2.9,1.9,5l0,0c0,3.2-1.8,5.4-4.4,6.6l5.1,7.5h-6.9
				l-4.4-6.5l0,0h-2.5v6.5h-6L145.9,126.7L145.9,126.7z M155.7,137c2.1,0,3.2-1,3.2-2.5l0,0c0-1.8-1.2-2.5-3.2-2.5h-4v5.1h4V137z"/>
			<path fill="#173245" d="M168,126.7h6v21.6h-6V126.7z"/>
			<path fill="#173245" d="M178,126.7h11c2.6,0,4.6,0.7,5.9,1.9c0.9,0.9,1.3,2.1,1.3,3.5l0,0c0,2.5-1.5,4-3.4,4.8
				c2.6,0.9,4.3,2.4,4.3,5.3l0,0c0,3.7-3.1,6-8.2,6h-11.2v-21.6H178z M187.7,135.3c1.8,0,2.8-0.6,2.8-1.9l0,0c0-1.2-0.9-1.9-2.6-1.9
				H184v3.8H187.7z M188.5,143.5c1.8,0,2.9-0.7,2.9-1.9l0,0c0-1.2-0.9-1.9-2.9-1.9h-4.6v4h4.6V143.5z"/>
			<path fill="#173245" d="M199.8,138.8v-12h6v12c0,3.1,1.6,4.6,4,4.6c2.4,0,4-1.5,4-4.4v-12.2h6v11.9c0,6.9-4,10-10.1,10
				C203.7,148.8,199.8,145.5,199.8,138.8z"/>
			<path fill="#173245" d="M228.7,132h-6.5v-5.3h18.9v5.3h-6.5v16.3h-6V132z"/>
			<path fill="#173245" d="M248.5,126.6h5.7l9.3,21.7h-6.5l-1.6-3.8h-8.4l-1.5,3.8h-6.3L248.5,126.6z M253.7,139.8l-2.4-6.2
				l-2.5,6.2H253.7z"/>
			<path fill="#173245" d="M265.6,126.7h10.1c3.2,0,5.6,0.9,7.1,2.4c1.3,1.2,1.9,2.9,1.9,5l0,0c0,3.2-1.8,5.4-4.4,6.6l5.1,7.5h-6.9
				l-4.4-6.5l0,0h-2.5v6.5h-6V126.7z M275.4,137c2.1,0,3.2-1,3.2-2.5l0,0c0-1.8-1.2-2.5-3.2-2.5h-4v5.1h4V137z"/>
			<path fill="#173245" d="M287.9,126.7h6v21.6h-6V126.7z"/>
			<path fill="#173245" d="M305.2,126.6h5.7l9.3,21.7h-6.5l-1.6-3.8h-8.4l-1.5,3.8H296L305.2,126.6z M310.5,139.8l-2.4-6.2l-2.5,6.2
				H310.5z"/>
		</g>
		<g>
			<path fill="#173245" d="M173.9,176.4l-4.3-6h-3.8v6h-3.1V159h7.6c4,0,6.5,2.1,6.5,5.4c0,2.8-1.8,4.6-4.1,5.3l4.7,6.5h-3.5V176.4z
				 M170.2,161.8h-4.4v5.7h4.4c2.2,0,3.5-1.2,3.5-2.9S172.4,161.8,170.2,161.8z"/>
			<path fill="#173245" d="M183.3,159v17.3h-3.1V159H183.3z M180.7,157.7l2.6-4.1l2.6,1.2l-2.9,2.8h-2.4V157.7z"/>
			<path fill="#173245" d="M195.8,176.7c-5.3,0-9-4-9-9c0-4.8,3.8-9,9.1-9s9,4,9,9C204.8,172.6,201.1,176.7,195.8,176.7z
				 M195.8,161.5c-3.4,0-5.9,2.8-5.9,6.2c0,3.4,2.5,6.2,5.9,6.2c3.4,0,5.9-2.8,5.9-6.2C201.7,164.3,199.2,161.5,195.8,161.5z"/>
			<path fill="#173245" d="M223,176.7c-5,0-8.8-4-8.8-9c0-5,3.7-9,9-9c3.2,0,5.1,1.2,6.8,2.6l-1.9,2.2c-1.3-1.3-2.8-2.2-4.8-2.2
				c-3.2,0-5.7,2.6-5.7,6.2c0,3.4,2.4,6.2,5.7,6.2c2.1,0,3.5-0.9,5-2.2l1.9,1.9C228.1,175.5,226.2,176.7,223,176.7z"/>
			<path fill="#173245" d="M247.2,168.9c0,5.1-2.9,7.8-7.5,7.8s-7.3-2.6-7.3-7.6v-10h3.1v9.8c0,3.2,1.6,5,4.4,5
				c2.6,0,4.4-1.6,4.4-4.8v-10h3.1v9.8H247.2z"/>
			<path fill="#173245" d="M266.7,176.4h-3.2l-1.8-4.1h-8.2l-1.8,4.1h-3.1l7.6-17.3h2.8L266.7,176.4z M257.8,162.6l-2.9,6.9h5.9
				L257.8,162.6z"/>
			<path fill="#173245" d="M280.4,176.4l-4.3-6h-3.8v6h-3.1V159h7.6c4,0,6.5,2.1,6.5,5.4c0,2.8-1.8,4.6-4.1,5.3l4.7,6.5h-3.5V176.4z
				 M276.7,161.8h-4.4v5.7h4.4c2.2,0,3.5-1.2,3.5-2.9C280.3,162.9,278.9,161.8,276.7,161.8z"/>
			<path fill="#173245" d="M293.9,176.4h-3.1V162h-5.4v-2.8h14v2.8h-5.4V176.4z"/>
			<path fill="#173245" d="M309.3,176.7c-5.3,0-9-4-9-9c0-4.8,3.8-9,9.1-9s9,4,9,9C318.4,172.6,314.6,176.7,309.3,176.7z
				 M309.3,161.5c-3.4,0-5.9,2.8-5.9,6.2c0,3.4,2.5,6.2,5.9,6.2s5.9-2.8,5.9-6.2C315.2,164.3,312.9,161.5,309.3,161.5z"/>
		</g>
		<g>
			<polygon opacity="0.7" fill="#9DC5E7" enable-background="new    " points="125.7,157.3 134.4,157.3 141,167.1 132.3,167.1 			
				"/>
			<polygon fill="#9DC5E7" points="125.7,177.1 134.4,177.1 141,167.1 132.3,167.1 			"/>
			<polygon opacity="0.7" fill="#9DC5E7" enable-background="new    " points="139.2,157.3 147.9,157.3 154.5,167.1 145.9,167.1 			
				"/>
			<polygon fill="#9DC5E7" points="139.2,177.1 147.9,177.1 154.5,167.1 145.9,167.1 			"/>
		</g>
	</g>
</g>
</svg>
