<?xml version="1.0" encoding="utf-8"?>
<!-- Generator: Adobe Illustrator 24.2.3, SVG Export Plug-In . SVG Version: 6.00 Build 0)  -->
<svg version="1.1" id="Capa_1" xmlns="http://www.w3.org/2000/svg" xmlns:xlink="http://www.w3.org/1999/xlink" x="0px" y="0px"
	 viewBox="0 0 60 60" style="enable-background:new 0 0 60 60;" xml:space="preserve">
<style type="text/css">
	.st0{fill:#86BAE3;}
</style>
<path class="st0" d="M25.5,0l21.9,6.8C48,7,48.5,7.4,48.9,7.9s0.6,1.1,0.6,1.8V15h6c0.8,0,1.6,0.3,2.1,0.9c0.6,0.6,0.9,1.3,0.9,2.1
	v6h-39v-6c0-0.8,0.3-1.6,0.9-2.1c0.6-0.6,1.3-0.9,2.1-0.9h21v-3.1l-18-5.6l-18,5.6v22.2c0,1.8,0.4,3.6,1.2,5.3
	c0.8,1.6,2,3.1,3.4,4.2l0.6,0.4l12.8,8.7L36.8,45H22.5c-0.8,0-1.6-0.3-2.1-0.9c-0.6-0.6-0.9-1.3-0.9-2.1V30h39v12
	c0,0.8-0.3,1.6-0.9,2.1C57,44.7,56.3,45,55.5,45h-9.7c-1.2,1.5-2.6,2.9-4.2,4L25.5,60L9.4,49C7,47.3,5,45.1,3.6,42.5
	S1.5,37,1.5,34.1V9.7c0-0.6,0.2-1.3,0.6-1.8C2.5,7.4,3,7,3.6,6.8L25.5,0z"/>
</svg>
