<?xml version="1.0" encoding="utf-8"?>
<!-- Generator: Adobe Illustrator 24.2.3, SVG Export Plug-In . SVG Version: 6.00 Build 0)  -->
<svg version="1.1" id="Capa_1" xmlns="http://www.w3.org/2000/svg" xmlns:xlink="http://www.w3.org/1999/xlink" x="0px" y="0px"
	 viewBox="0 0 60 60" style="enable-background:new 0 0 60 60;" xml:space="preserve">
<style type="text/css">
	.st0{fill:#86BAE3;}
</style>
<g>
	<path class="st0" d="M53.6,3H6.4C2.9,3,0,5.7,0,9v42c0,3.3,2.9,6,6.4,6h47.3c3.5,0,6.4-2.7,6.4-6V9C60,5.7,57.1,3,53.6,3z M53.6,51
		H6.4c-0.2,0-0.3,0-0.3,0l0,0L6,9.1C6,9.1,6.1,9,6.4,9h47.3C53.9,9,54,9.1,54,9v41.8C54,50.9,53.9,51,53.6,51z"/>
	<path class="st0" d="M10,13.3h20v20H10V13.3z M33.3,40H10v6.7h40V40H36.7H33.3z M36.7,26.7H50v6.7H36.7V26.7z M36.7,13.3H50V20
		H36.7V13.3z"/>
</g>
</svg>
